<svg xmlns="http://www.w3.org/2000/svg" viewBox="0 0 600 500" role="img" aria-labelledby="t d" xmlns:c2pa="http://c2pa.org/manifest"><metadata><c2pa:manifest>AAAWgmp1bWIAAAAeanVtZGMycGEAEQAQgAAAqgA4m3EDYzJwYQAAABZcanVtYgAAAEdqdW1kYzJtYQARABCAAACqADibcQN1cm46YzJwYToyM2I0ODcxMS05OGQ2LTQ4OTAtYTVjYS0wMWQ5YjRlMjZmNTcAAAADl2p1bWIAAAApanVtZGMyYXMAEQAQgAAAqgA4m3EDYzJwYS5hc3NlcnRpb25zAAAAALxqdW1iAAAARGp1bWRjYm9yABEAEIAAAKoAOJtxE2MycGEuaW5ncmVkaWVudC52MwAAAAAYYzJzaG4Fs1voRz36KNU7MF0fRbUAAABwY2JvcqNpZGM6Zm9ybWF0bWltYWdlL3N2Zyt4bWxqaW5zdGFuY2VJRHgseG1wOmlpZDpmMmY3MzExYy00ZDgwLTRlMjAtYjI3Yi0xZTgzNDM3NDM4NDlscmVsYXRpb25zaGlwaHBhcmVudE9mAAAB4mp1bWIAAABBanVtZGNib3IAEQAQgAAAqgA4m3ETYzJwYS5hY3Rpb25zLnYyAAAAABhjMnNoKbPyTkp/ZsDD7tk1zjiBwQAAAZljYm9yomdhY3Rpb25zgqJmYWN0aW9ua2MycGEub3BlbmVkanBhcmFtZXRlcnOha2luZ3JlZGllbnRzgaJjdXJseC1zZWxmI2p1bWJmPWMycGEuYXNzZXJ0aW9ucy9jMnBhLmluZ3JlZGllbnQudjNkaGFzaFggi1ng4HzP0QYakFq944JiEmMLXm3L0rVHJcPKT1P+C+6kZmFjdGlvbngdY29tLmFudGhyb3BpYy5jbGF1ZGUucHJvdmlkZWRqcGFyYW1ldGVyc6F4H2NvbS5hbnRocm9waWMub3JpZ2luLWNvbmZpZGVuY2VndW5rbm93bmtkZXNjcmlwdGlvbnhmQ2xhdWRlIHByb3ZpZGVkIHRoaXMgZmlsZSBhdCB0aGUgcmVxdWVzdCBvZiBhIHVzZXIgYW5kIG1heSBoYXZlIGNyZWF0ZWQgb3IgbW9kaWZpZWQgdGhlIGZpbGUgY29udGVudHMubXNvZnR3YXJlQWdlbnShZG5hbWVmQ2xhdWRlcmFsbEFjdGlvbnNJbmNsdWRlZPUAAADIanVtYgAAAEBqdW1kY2JvcgARABCAAACqADibcRNjMnBhLmhhc2guZGF0YQAAAAAYYzJzaEyUghs7KaylyxHelI8XVQAAAACAY2JvcqVjYWxnZnNoYTI1NmNwYWRNAAAAAAAAAAAAAAAAAGRoYXNoWCDIyobeLfhL4pXIuhvzpvFj3l9ZZY5JWgHeb9WImolWIWRuYW1lbmp1bWJmIG1hbmlmZXN0amV4Y2x1c2lvbnOBomVzdGFydBieZmxlbmd0aBkeBAAAAj5qdW1iAAAAJ2p1bWRjMmNsABEAEIAAAKoAOJtxA2MycGEuY2xhaW0udjIAAAACD2Nib3KlY2FsZ2ZzaGEyNTZpc2lnbmF0dXJleE1zZWxmI2p1bWJmPS9jMnBhL3VybjpjMnBhOjIzYjQ4NzExLTk4ZDYtNDg5MC1hNWNhLTAxZDliNGUyNmY1Ny9jMnBhLnNpZ25hdHVyZWppbnN0YW5jZUlEeCx4bXA6aWlkOjY4NjEzYmJmLTk5ODAtNGRhMy1iMzU4LTk5MzBkNmZhYmQ1YXJjcmVhdGVkX2Fzc2VydGlvbnODomN1cmx4LXNlbGYjanVtYmY9YzJwYS5hc3NlcnRpb25zL2MycGEuaW5ncmVkaWVudC52M2RoYXNoWCCLWeDgfM/RBhqQWr3jgmISYwtebcvStUclw8pPU/4L7qJjdXJseCpzZWxmI2p1bWJmPWMycGEuYXNzZXJ0aW9ucy9jMnBhLmFjdGlvbnMudjJkaGFzaFgg5mjkZNgqic/uIZnD+GO772iYsNsIwjNnkzba1049m0iiY3VybHgpc2VsZiNqdW1iZj1jMnBhLmFzc2VydGlvbnMvYzJwYS5oYXNoLmRhdGFkaGFzaFggn/6dbiEo11Qdt+5R5IKnbgyKQXpBxDwihNwOqKwjUiB0Y2xhaW1fZ2VuZXJhdG9yX2luZm+jZG5hbWVvQW50aHJvcGljIEZpbGVzZ3ZlcnNpb25lMS4wLjBrc3BlY1ZlcnNpb25lMi40LjAAABA4anVtYgAAAChqdW1kYzJjcwARABCAAACqADibcQNjMnBhLnNpZ25hdHVyZQAAABAIY2JvctKEWQISogEmGCFZAgowggIGMIIBjaADAgECAhRA5aAK7sI50L64g/oGQgU9Z1UTADAKBggqhkjOPQQDAzBJMRcwFQYDVQQKEw5BbnRocm9waWMsIFBCQzEuMCwGA1UEAxMlQW50aHJvcGljIENvbnRlbnQgQ3JlZGVudGlhbHMgUm9vdCBDQTAeFw0yNjA4MDcxODQzNTZaFw0yODA4MDYxOTQzNTZaMEQxFzAVBgNVBAoTDkFudGhyb3BpYywgUEJDMSkwJwYDVQQDEyBBbnRocm9waWMgQ2xhdWRlIENvbnRlbnQgU2lnbmluZzBZMBMGByqGSM49AgEGCCqGSM49AwEHA0IABJh6CmvLUBgFFNU0vUKlOVtE6djd17L5SuwX0LemFisBM3dkd/3cyjxFA3Qo5S46fX0/ihY0VZ7mfb9KF703t5OjWDBWMA4GA1UdDwEB/wQEAwIHgDAVBgNVHSUEDjAMBgorBgEEAYPoXgIBMAwGA1UdEwEB/wQCMAAwHwYDVR0jBBgwFoAUzlHiBIFOZFsj+OPEz5o+nMHXXMIwCgYIKoZIzj0EAwMDZwAwZAIwMXMdFJ4BetLLVY7ORuE9noqbbAZOZn/aArXyTwFAZfKrPzxF2vPoJNf1+UCdg1XGAjBwX1zd9WGqYkqmL5SFqw1QySjr1zJfpJM9+1rdDwSPLMOPOjKuiXjoU/pUUeG9RwmhY3BhZFkNngAAAAAAAAAAAAAAAAAAAAAAAAAAAAAAAAAAAAAAAAAAAAAAAAAAAAAAAAAAAAAAAAAAAAAAAAAAAAAAAAAAAAAAAAAAAAAAAAAAAAAAAAAAAAAAAAAAAAAAAAAAAAAAAAAAAAAAAAAAAAAAAAAAAAAAAAAAAAAAAAAAAAAAAAAAAAAAAAAAAAAAAAAAAAAAAAAAAAAAAAAAAAAAAAAAAAAAAAAAAAAAAAAAAAAAAAAAAAAAAAAAAAAAAAAAAAAAAAAAAAAAAAAAAAAAAAAAAAAAAAAAAAAAAAAAAAAAAAAAAAAAAAAAAAAAAAAAAAAAAAAAAAAAAAAAAAAAAAAAAAAAAAAAAAAAAAAAAAAAAAAAAAAAAAAAAAAAAAAAAAAAAAAAAAAAAAAAAAAAAAAAAAAAAAAAAAAAAAAAAAAAAAAAAAAAAAAAAAAAAAAAAAAAAAAAAAAAAAAAAAAAAAAAAAAAAAAAAAAAAAAAAAAAAAAAAAAAAAAAAAAAAAAAAAAAAAAAAAAAAAAAAAAAAAAAAAAAAAAAAAAAAAAAAAAAAAAAAAAAAAAAAAAAAAAAAAAAAAAAAAAAAAAAAAAAAAAAAAAAAAAAAAAAAAAAAAAAAAAAAAAAAAAAAAAAAAAAAAAAAAAAAAAAAAAAAAAAAAAAAAAAAAAAAAAAAAAAAAAAAAAAAAAAAAAAAAAAAAAAAAAAAAAAAAAAAAAAAAAAAAAAAAAAAAAAAAAAAAAAAAAAAAAAAAAAAAAAAAAAAAAAAAAAAAAAAAAAAAAAAAAAAAAAAAAAAAAAAAAAAAAAAAAAAAAAAAAAAAAAAAAAAAAAAAAAAAAAAAAAAAAAAAAAAAAAAAAAAAAAAAAAAAAAAAAAAAAAAAAAAAAAAAAAAAAAAAAAAAAAAAAAAAAAAAAAAAAAAAAAAAAAAAAAAAAAAAAAAAAAAAAAAAAAAAAAAAAAAAAAAAAAAAAAAAAAAAAAAAAAAAAAAAAAAAAAAAAAAAAAAAAAAAAAAAAAAAAAAAAAAAAAAAAAAAAAAAAAAAAAAAAAAAAAAAAAAAAAAAAAAAAAAAAAAAAAAAAAAAAAAAAAAAAAAAAAAAAAAAAAAAAAAAAAAAAAAAAAAAAAAAAAAAAAAAAAAAAAAAAAAAAAAAAAAAAAAAAAAAAAAAAAAAAAAAAAAAAAAAAAAAAAAAAAAAAAAAAAAAAAAAAAAAAAAAAAAAAAAAAAAAAAAAAAAAAAAAAAAAAAAAAAAAAAAAAAAAAAAAAAAAAAAAAAAAAAAAAAAAAAAAAAAAAAAAAAAAAAAAAAAAAAAAAAAAAAAAAAAAAAAAAAAAAAAAAAAAAAAAAAAAAAAAAAAAAAAAAAAAAAAAAAAAAAAAAAAAAAAAAAAAAAAAAAAAAAAAAAAAAAAAAAAAAAAAAAAAAAAAAAAAAAAAAAAAAAAAAAAAAAAAAAAAAAAAAAAAAAAAAAAAAAAAAAAAAAAAAAAAAAAAAAAAAAAAAAAAAAAAAAAAAAAAAAAAAAAAAAAAAAAAAAAAAAAAAAAAAAAAAAAAAAAAAAAAAAAAAAAAAAAAAAAAAAAAAAAAAAAAAAAAAAAAAAAAAAAAAAAAAAAAAAAAAAAAAAAAAAAAAAAAAAAAAAAAAAAAAAAAAAAAAAAAAAAAAAAAAAAAAAAAAAAAAAAAAAAAAAAAAAAAAAAAAAAAAAAAAAAAAAAAAAAAAAAAAAAAAAAAAAAAAAAAAAAAAAAAAAAAAAAAAAAAAAAAAAAAAAAAAAAAAAAAAAAAAAAAAAAAAAAAAAAAAAAAAAAAAAAAAAAAAAAAAAAAAAAAAAAAAAAAAAAAAAAAAAAAAAAAAAAAAAAAAAAAAAAAAAAAAAAAAAAAAAAAAAAAAAAAAAAAAAAAAAAAAAAAAAAAAAAAAAAAAAAAAAAAAAAAAAAAAAAAAAAAAAAAAAAAAAAAAAAAAAAAAAAAAAAAAAAAAAAAAAAAAAAAAAAAAAAAAAAAAAAAAAAAAAAAAAAAAAAAAAAAAAAAAAAAAAAAAAAAAAAAAAAAAAAAAAAAAAAAAAAAAAAAAAAAAAAAAAAAAAAAAAAAAAAAAAAAAAAAAAAAAAAAAAAAAAAAAAAAAAAAAAAAAAAAAAAAAAAAAAAAAAAAAAAAAAAAAAAAAAAAAAAAAAAAAAAAAAAAAAAAAAAAAAAAAAAAAAAAAAAAAAAAAAAAAAAAAAAAAAAAAAAAAAAAAAAAAAAAAAAAAAAAAAAAAAAAAAAAAAAAAAAAAAAAAAAAAAAAAAAAAAAAAAAAAAAAAAAAAAAAAAAAAAAAAAAAAAAAAAAAAAAAAAAAAAAAAAAAAAAAAAAAAAAAAAAAAAAAAAAAAAAAAAAAAAAAAAAAAAAAAAAAAAAAAAAAAAAAAAAAAAAAAAAAAAAAAAAAAAAAAAAAAAAAAAAAAAAAAAAAAAAAAAAAAAAAAAAAAAAAAAAAAAAAAAAAAAAAAAAAAAAAAAAAAAAAAAAAAAAAAAAAAAAAAAAAAAAAAAAAAAAAAAAAAAAAAAAAAAAAAAAAAAAAAAAAAAAAAAAAAAAAAAAAAAAAAAAAAAAAAAAAAAAAAAAAAAAAAAAAAAAAAAAAAAAAAAAAAAAAAAAAAAAAAAAAAAAAAAAAAAAAAAAAAAAAAAAAAAAAAAAAAAAAAAAAAAAAAAAAAAAAAAAAAAAAAAAAAAAAAAAAAAAAAAAAAAAAAAAAAAAAAAAAAAAAAAAAAAAAAAAAAAAAAAAAAAAAAAAAAAAAAAAAAAAAAAAAAAAAAAAAAAAAAAAAAAAAAAAAAAAAAAAAAAAAAAAAAAAAAAAAAAAAAAAAAAAAAAAAAAAAAAAAAAAAAAAAAAAAAAAAAAAAAAAAAAAAAAAAAAAAAAAAAAAAAAAAAAAAAAAAAAAAAAAAAAAAAAAAAAAAAAAAAAAAAAAAAAAAAAAAAAAAAAAAAAAAAAAAAAAAAAAAAAAAAAAAAAAAAAAAAAAAAAAAAAAAAAAAAAAAAAAAAAAAAAAAAAAAAAAAAAAAAAAAAAAAAAAAAAAAAAAAAAAAAAAAAAAAAAAAAAAAAAAAAAAAAAAAAAAAAAAAAAAAAAAAAAAAAAAAAAAAAAAAAAAAAAAAAAAAAAAAAAAAAAAAAAAAAAAAAAAAAAAAAAAAAAAAAAAAAAAAAAAAAAAAAAAAAAAAAAAAAAAAAAAAAAAAAAAAAAAAAAAAAAAAAAAAAAAAAAAAAAAAAAAAAAAAAAAAAAAAAAAAAAAAAAAAAAAAAAAAAAAAAAAAAAAAAAAAAAAAAAAAAAAAAAAAAAAAAAAAAAAAAAAAAAAAAAAAAAAAAAAAAAAAAAAAAAAAAAAAAAAAAAAAAAAAAAAAAAAAAAAAAAAAAAAAAAAAAAAAAAAAAAAAAAAAAAAAAAAAAAAAAAAAAAAAAAAAAAAAAAAAAAAAAAAAAAAAAAAAAAAAAAAAAAAAAAAAAAAAAAAAAAAAAAAAAAAAAAAAAAAAAAAAAAAAAAAAAAAAAAAAAAAAAAAAAAAAAAAAAAAAAAAAAAAAAAAAAAAAAAAAAAAAAAAAAAAAAAAAAAAAAAAAAAAAAAAAAAAAAAAAAAAAAAAAAAAAAAAAAAAAAAAAAAAAAAAAAAAAAAAAAAAAAAAAAAAAAAAAAAAAAAAAAAAAAAAAAAAAAAAAAAAAAAAAAAAAAAAAAAAAAAAAAAAAAAAAAAAAAAAAAAAAAAAAAAAAAAAAAAAAAAAAAAAAAAAAAAAAAAAAAAAAAAAAAAAAAAAAAAAAAAAAAAAAAAAAAAAAAAAAAAAAAAAAAAAAAAAAAAAAAAAAAAAAAAAAAAAAAAAAAAAAAAAAAAAAAAAAAAAAAAAAAAAAAAAAAAAAAAAAAAAAAAAAAAAAAAAAAAAAAAAAAAAAAAAAAAAAAAAAAAAAAAAAAAAAAAAAAAAAAAAAAAAAAAAAAAAAAAAAAAAAAAAAAAAAAAAAAAAAAAAAAAAAAAAAAAAAAAAAAAAAAAAAAAAAAAAAAAAAAAAAAAAAAAAAAAAAAAAAAAAAAAAAAAAAAAAAAAAAAAAAAAAAAAAAAAAAAAAAAAAAAAAAAAAAAAAAAAAAAAAAAAAAAAAAAAAAAAAAAAAAAAAAAAAAAAAAAAAAAAAAAAAAAAAAAAAAAAAAAAAAAAAAAAAAAAAAAAAAAAAAAAAAAAAAAAAAAAAAAAAAAAAAAAAAAAAAAAAAAAAAAAAAAAAAAAAAAAAAAAAAAAAAAAAAAAAAAAAAAAAAAAAAAAAAAAAAAAAAAAAAAAAAAAAAAAAAAAAAAAAAAAAAAAAAAAAAAAAAAAAAAAAAAAAAAAAAAAAAAAAAAAAAAAAAAAAAAAAAAAAAAAAAAAAAAAAAAAAAAAAAAAAAAAAAAAAAAAAAAAAAAAAAAAAAAAAAAAAAAAAAAAAAAAAAAAAAAAAAAAAAAAAAAAAAAAAAAAAAAAAAAAAAAAAAAAAAAAAAAAAAAAAAAAAAAAAAAAAAAAAAAAAAAAAAAAAAAAAAAAAAAAAAAAAAAAAAAAAAAAAAAAAAAAAAAAAAAAAAAAAAAAAAAAAAAAAAAAAAAAAAAAAAAAAAAAAAAAAAAAAAAAAAAAAAAAAAAAAAAAAAAAAAAAAAAAAAAAAAAAAAAAAAAAAAAAAAAAAAAAAAAAAPZYQA0KglU5ZJBWrhHk1c54LCVmHLwJODTJWOubWLFseghtWYFkCn/dUu1st9/CxDG5/NL6bnC5us54mlK6WGzTARQ=</c2pa:manifest></metadata>
  <title id="t">Sunny at her desk</title>
  <desc id="d">A researcher works at a desk with a monitor showing a sequence alignment and a DNA helix, while her silver tabby cat sits on the desk.</desc>
  <style>
    .tail{transform-origin:118px 322px;animation:sway 4s ease-in-out infinite}
    @keyframes sway{0%,100%{transform:rotate(0)}50%{transform:rotate(-7deg)}}
    @media (prefers-reduced-motion:reduce){.tail{animation:none}}
  </style>

  <ellipse cx="310" cy="472" rx="260" ry="13" fill="#000" opacity="0.28"/>

  <!-- plant -->
  <path d="M548 405 C530 360 520 340 512 318 C534 338 548 360 552 400Z" fill="#7b5cc4"/>
  <path d="M552 402 C556 352 566 330 584 312 C580 345 570 372 560 404Z" fill="#9b7ede"/>
  <path d="M550 404 C540 372 548 344 548 322 C558 350 560 378 556 404Z" fill="#b39af0"/>
  <path d="M532 400 h44 l-6 66 h-32z" fill="#3a3552"/>
  <rect x="528" y="396" width="52" height="10" rx="3" fill="#4a4466"/>

  <!-- chair -->
  <rect x="468" y="276" width="16" height="114" rx="8" fill="#5b4a8a"/>
  <rect x="396" y="382" width="92" height="14" rx="6" fill="#6a58a0"/>
  <rect x="440" y="396" width="8" height="58" fill="#2e2a42"/>
  <path d="M410 466 L444 452 L478 466" stroke="#2e2a42" stroke-width="7" fill="none" stroke-linecap="round"/>

  <!-- legs -->
  <path d="M432 386 L372 386 Q362 386 362 396 L362 452" stroke="#3d3a5c" stroke-width="24" fill="none" stroke-linecap="round" stroke-linejoin="round"/>
  <path d="M342 462 Q342 450 356 450 L372 450 Q378 450 378 458 L378 466 L342 466Z" fill="#ece8f4"/>

  <!-- torso -->
  <path d="M402 300 Q402 284 420 284 L438 284 Q458 284 458 304 L460 392 L404 392Z" fill="#9b7ede"/>
  <path d="M414 284 Q428 296 442 284" stroke="#7b5cc4" stroke-width="3" fill="none"/>

  <!-- hair back -->
  <path d="M424 236 Q458 232 458 268 L460 312 Q446 318 434 306 Z" fill="#2b2233"/>
  <!-- neck + head -->
  <rect x="420" y="270" width="14" height="18" rx="5" fill="#e9b996"/>
  <circle cx="424" cy="258" r="25" fill="#f2c9a8"/>
  <path d="M400 252 Q402 228 428 230 Q452 232 450 262 Q440 250 432 246 Q414 244 400 252Z" fill="#2b2233"/>
  <circle cx="446" cy="230" r="11" fill="#2b2233"/>
  <circle cx="410" cy="262" r="2.6" fill="#2b2233"/>
  <circle cx="416" cy="270" r="4" fill="#f0a6a6" opacity="0.6"/>
  <circle cx="434" cy="262" r="5" fill="#e9b996"/>

  <!-- desk -->
  <rect x="112" y="346" width="13" height="122" fill="#2e2a42"/>
  <rect x="436" y="346" width="13" height="122" fill="#2e2a42"/>
  <rect x="88" y="328" width="384" height="20" rx="4" fill="#4a4466"/>
  <rect x="88" y="328" width="384" height="5" rx="2.5" fill="#5d5680"/>

  <!-- monitor -->
  <rect x="236" y="300" width="9" height="24" fill="#2e2a42"/>
  <rect x="214" y="322" width="52" height="7" rx="3" fill="#2e2a42"/>
  <rect x="148" y="172" width="184" height="132" rx="8" fill="#2e2a42"/>
  <rect x="157" y="181" width="166" height="114" rx="4" fill="#191428"/>
  <circle cx="165" cy="190" r="2" fill="#f28b82"/><circle cx="172" cy="190" r="2" fill="#f2b880"/><circle cx="179" cy="190" r="2" fill="#7fd6c2"/>
  <g>
      <rect x="166" y="204" width="8" height="5" rx="1.5" fill="#8fb8f5" opacity="0.85"/>
      <rect x="184" y="204" width="6" height="5" rx="1.5" fill="#7fd6c2" opacity="0.85"/>
      <rect x="202" y="204" width="10" height="5" rx="1.5" fill="#b48ef0" opacity="0.85"/>
      <rect x="214" y="204" width="6" height="5" rx="1.5" fill="#7fd6c2" opacity="0.85"/>
      <rect x="222" y="204" width="6" height="5" rx="1.5" fill="#7fd6c2" opacity="0.85"/>
      <rect x="252" y="204" width="8" height="5" rx="1.5" fill="#b48ef0" opacity="0.85"/>
      <rect x="262" y="204" width="6" height="5" rx="1.5" fill="#b48ef0" opacity="0.85"/>
      <rect x="270" y="204" width="6" height="5" rx="1.5" fill="#b48ef0" opacity="0.85"/>
      <rect x="288" y="204" width="6" height="5" rx="1.5" fill="#b48ef0" opacity="0.85"/>
      <rect x="296" y="204" width="10" height="5" rx="1.5" fill="#8fb8f5" opacity="0.85"/>
      <rect x="308" y="204" width="8" height="5" rx="1.5" fill="#8fb8f5" opacity="0.85"/>
      <rect x="166" y="213" width="8" height="5" rx="1.5" fill="#b48ef0" opacity="0.85"/>
      <rect x="186" y="213" width="8" height="5" rx="1.5" fill="#f2b880" opacity="0.85"/>
      <rect x="196" y="213" width="10" height="5" rx="1.5" fill="#7fd6c2" opacity="0.85"/>
      <rect x="208" y="213" width="6" height="5" rx="1.5" fill="#b48ef0" opacity="0.85"/>
      <rect x="216" y="213" width="8" height="5" rx="1.5" fill="#8fb8f5" opacity="0.85"/>
      <rect x="238" y="213" width="6" height="5" rx="1.5" fill="#f2b880" opacity="0.85"/>
      <rect x="246" y="213" width="8" height="5" rx="1.5" fill="#8fb8f5" opacity="0.85"/>
      <rect x="268" y="213" width="6" height="5" rx="1.5" fill="#8fb8f5" opacity="0.85"/>
      <rect x="284" y="213" width="8" height="5" rx="1.5" fill="#8fb8f5" opacity="0.85"/>
      <rect x="294" y="213" width="8" height="5" rx="1.5" fill="#f2b880" opacity="0.85"/>
      <rect x="304" y="213" width="6" height="5" rx="1.5" fill="#f2b880" opacity="0.85"/>
      <rect x="166" y="222" width="8" height="5" rx="1.5" fill="#8fb8f5" opacity="0.85"/>
      <rect x="176" y="222" width="6" height="5" rx="1.5" fill="#f2b880" opacity="0.85"/>
      <rect x="184" y="222" width="8" height="5" rx="1.5" fill="#8fb8f5" opacity="0.85"/>
      <rect x="194" y="222" width="10" height="5" rx="1.5" fill="#8fb8f5" opacity="0.85"/>
      <rect x="206" y="222" width="6" height="5" rx="1.5" fill="#8fb8f5" opacity="0.85"/>
      <rect x="214" y="222" width="8" height="5" rx="1.5" fill="#8fb8f5" opacity="0.85"/>
      <rect x="224" y="222" width="8" height="5" rx="1.5" fill="#f2b880" opacity="0.85"/>
      <rect x="234" y="222" width="10" height="5" rx="1.5" fill="#b48ef0" opacity="0.85"/>
      <rect x="246" y="222" width="6" height="5" rx="1.5" fill="#b48ef0" opacity="0.85"/>
      <rect x="264" y="222" width="8" height="5" rx="1.5" fill="#7fd6c2" opacity="0.85"/>
      <rect x="274" y="222" width="8" height="5" rx="1.5" fill="#f2b880" opacity="0.85"/>
      <rect x="284" y="222" width="8" height="5" rx="1.5" fill="#7fd6c2" opacity="0.85"/>
      <rect x="294" y="222" width="10" height="5" rx="1.5" fill="#8fb8f5" opacity="0.85"/>
      <rect x="306" y="222" width="10" height="5" rx="1.5" fill="#7fd6c2" opacity="0.85"/>
      <rect x="166" y="231" width="10" height="5" rx="1.5" fill="#7fd6c2" opacity="0.85"/>
      <rect x="188" y="231" width="8" height="5" rx="1.5" fill="#7fd6c2" opacity="0.85"/>
      <rect x="198" y="231" width="8" height="5" rx="1.5" fill="#7fd6c2" opacity="0.85"/>
      <rect x="208" y="231" width="6" height="5" rx="1.5" fill="#7fd6c2" opacity="0.85"/>
      <rect x="216" y="231" width="8" height="5" rx="1.5" fill="#7fd6c2" opacity="0.85"/>
      <rect x="226" y="231" width="8" height="5" rx="1.5" fill="#b48ef0" opacity="0.85"/>
      <rect x="236" y="231" width="8" height="5" rx="1.5" fill="#f2b880" opacity="0.85"/>
      <rect x="246" y="231" width="10" height="5" rx="1.5" fill="#8fb8f5" opacity="0.85"/>
      <rect x="258" y="231" width="10" height="5" rx="1.5" fill="#f2b880" opacity="0.85"/>
      <rect x="270" y="231" width="6" height="5" rx="1.5" fill="#f2b880" opacity="0.85"/>
      <rect x="278" y="231" width="8" height="5" rx="1.5" fill="#b48ef0" opacity="0.85"/>
      <rect x="288" y="231" width="6" height="5" rx="1.5" fill="#f2b880" opacity="0.85"/>
      <rect x="296" y="231" width="8" height="5" rx="1.5" fill="#7fd6c2" opacity="0.85"/>
      <rect x="306" y="231" width="8" height="5" rx="1.5" fill="#7fd6c2" opacity="0.85"/>
  </g>
  <g stroke="#5d5680" stroke-width="1.4">
        <line x1="170" y1="268.3" x2="170" y2="259.7"/>
        <line x1="179" y1="275.6" x2="179" y2="252.4"/>
        <line x1="188" y1="276.4" x2="188" y2="251.6"/>
        <line x1="197" y1="270.3" x2="197" y2="257.7"/>
        <line x1="206" y1="260.7" x2="206" y2="267.3"/>
        <line x1="215" y1="252.9" x2="215" y2="275.1"/>
        <line x1="224" y1="251.3" x2="224" y2="276.7"/>
        <line x1="233" y1="256.7" x2="233" y2="271.3"/>
        <line x1="242" y1="266.2" x2="242" y2="261.8"/>
        <line x1="251" y1="274.5" x2="251" y2="253.5"/>
        <line x1="260" y1="276.9" x2="260" y2="251.1"/>
        <line x1="269" y1="272.2" x2="269" y2="255.8"/>
        <line x1="278" y1="262.9" x2="278" y2="265.1"/>
        <line x1="287" y1="254.2" x2="287" y2="273.8"/>
        <line x1="296" y1="251.0" x2="296" y2="277.0"/>
        <line x1="305" y1="255.0" x2="305" y2="273.0"/>
  </g>
  <path d="M166.0,264.0 L167.0,265.1 L168.0,266.2 L169.0,267.3 L170.0,268.3 L171.0,269.4 L172.0,270.3 L173.0,271.3 L174.0,272.2 L175.0,273.0 L176.0,273.8 L177.0,274.5 L178.0,275.1 L179.0,275.6 L180.0,276.1 L181.0,276.4 L182.0,276.7 L183.0,276.9 L184.0,277.0 L185.0,277.0 L186.0,276.9 L187.0,276.7 L188.0,276.4 L189.0,276.1 L190.0,275.6 L191.0,275.1 L192.0,274.5 L193.0,273.8 L194.0,273.0 L195.0,272.2 L196.0,271.3 L197.0,270.3 L198.0,269.4 L199.0,268.3 L200.0,267.3 L201.0,266.2 L202.0,265.1 L203.0,264.0 L204.0,262.9 L205.0,261.8 L206.0,260.7 L207.0,259.7 L208.0,258.6 L209.0,257.7 L210.0,256.7 L211.0,255.8 L212.0,255.0 L213.0,254.2 L214.0,253.5 L215.0,252.9 L216.0,252.4 L217.0,251.9 L218.0,251.6 L219.0,251.3 L220.0,251.1 L221.0,251.0 L222.0,251.0 L223.0,251.1 L224.0,251.3 L225.0,251.6 L226.0,251.9 L227.0,252.4 L228.0,252.9 L229.0,253.5 L230.0,254.2 L231.0,255.0 L232.0,255.8 L233.0,256.7 L234.0,257.7 L235.0,258.6 L236.0,259.7 L237.0,260.7 L238.0,261.8 L239.0,262.9 L240.0,264.0 L241.0,265.1 L242.0,266.2 L243.0,267.3 L244.0,268.3 L245.0,269.4 L246.0,270.3 L247.0,271.3 L248.0,272.2 L249.0,273.0 L250.0,273.8 L251.0,274.5 L252.0,275.1 L253.0,275.6 L254.0,276.1 L255.0,276.4 L256.0,276.7 L257.0,276.9 L258.0,277.0 L259.0,277.0 L260.0,276.9 L261.0,276.7 L262.0,276.4 L263.0,276.1 L264.0,275.6 L265.0,275.1 L266.0,274.5 L267.0,273.8 L268.0,273.0 L269.0,272.2 L270.0,271.3 L271.0,270.3 L272.0,269.4 L273.0,268.3 L274.0,267.3 L275.0,266.2 L276.0,265.1 L277.0,264.0 L278.0,262.9 L279.0,261.8 L280.0,260.7 L281.0,259.7 L282.0,258.6 L283.0,257.7 L284.0,256.7 L285.0,255.8 L286.0,255.0 L287.0,254.2 L288.0,253.5 L289.0,252.9 L290.0,252.4 L291.0,251.9 L292.0,251.6 L293.0,251.3 L294.0,251.1 L295.0,251.0 L296.0,251.0 L297.0,251.1 L298.0,251.3 L299.0,251.6 L300.0,251.9 L301.0,252.4 L302.0,252.9 L303.0,253.5 L304.0,254.2 L305.0,255.0 L306.0,255.8 L307.0,256.7 L308.0,257.7 L309.0,258.6 L310.0,259.7 L311.0,260.7 L312.0,261.8 L313.0,262.9 L314.0,264.0" stroke="#7fd6c2" stroke-width="2.4" fill="none"/>
  <path d="M166.0,264.0 L167.0,262.9 L168.0,261.8 L169.0,260.7 L170.0,259.7 L171.0,258.6 L172.0,257.7 L173.0,256.7 L174.0,255.8 L175.0,255.0 L176.0,254.2 L177.0,253.5 L178.0,252.9 L179.0,252.4 L180.0,251.9 L181.0,251.6 L182.0,251.3 L183.0,251.1 L184.0,251.0 L185.0,251.0 L186.0,251.1 L187.0,251.3 L188.0,251.6 L189.0,251.9 L190.0,252.4 L191.0,252.9 L192.0,253.5 L193.0,254.2 L194.0,255.0 L195.0,255.8 L196.0,256.7 L197.0,257.7 L198.0,258.6 L199.0,259.7 L200.0,260.7 L201.0,261.8 L202.0,262.9 L203.0,264.0 L204.0,265.1 L205.0,266.2 L206.0,267.3 L207.0,268.3 L208.0,269.4 L209.0,270.3 L210.0,271.3 L211.0,272.2 L212.0,273.0 L213.0,273.8 L214.0,274.5 L215.0,275.1 L216.0,275.6 L217.0,276.1 L218.0,276.4 L219.0,276.7 L220.0,276.9 L221.0,277.0 L222.0,277.0 L223.0,276.9 L224.0,276.7 L225.0,276.4 L226.0,276.1 L227.0,275.6 L228.0,275.1 L229.0,274.5 L230.0,273.8 L231.0,273.0 L232.0,272.2 L233.0,271.3 L234.0,270.3 L235.0,269.4 L236.0,268.3 L237.0,267.3 L238.0,266.2 L239.0,265.1 L240.0,264.0 L241.0,262.9 L242.0,261.8 L243.0,260.7 L244.0,259.7 L245.0,258.6 L246.0,257.7 L247.0,256.7 L248.0,255.8 L249.0,255.0 L250.0,254.2 L251.0,253.5 L252.0,252.9 L253.0,252.4 L254.0,251.9 L255.0,251.6 L256.0,251.3 L257.0,251.1 L258.0,251.0 L259.0,251.0 L260.0,251.1 L261.0,251.3 L262.0,251.6 L263.0,251.9 L264.0,252.4 L265.0,252.9 L266.0,253.5 L267.0,254.2 L268.0,255.0 L269.0,255.8 L270.0,256.7 L271.0,257.7 L272.0,258.6 L273.0,259.7 L274.0,260.7 L275.0,261.8 L276.0,262.9 L277.0,264.0 L278.0,265.1 L279.0,266.2 L280.0,267.3 L281.0,268.3 L282.0,269.4 L283.0,270.3 L284.0,271.3 L285.0,272.2 L286.0,273.0 L287.0,273.8 L288.0,274.5 L289.0,275.1 L290.0,275.6 L291.0,276.1 L292.0,276.4 L293.0,276.7 L294.0,276.9 L295.0,277.0 L296.0,277.0 L297.0,276.9 L298.0,276.7 L299.0,276.4 L300.0,276.1 L301.0,275.6 L302.0,275.1 L303.0,274.5 L304.0,273.8 L305.0,273.0 L306.0,272.2 L307.0,271.3 L308.0,270.3 L309.0,269.4 L310.0,268.3 L311.0,267.3 L312.0,266.2 L313.0,265.1 L314.0,264.0" stroke="#b48ef0" stroke-width="2.4" fill="none"/>

  <!-- keyboard + mug -->
  <rect x="292" y="322" width="70" height="6" rx="2" fill="#d9d4e8"/>

  <!-- arm -->
  <path d="M424 300 L414 322 L364 322" stroke="#9b7ede" stroke-width="15" fill="none" stroke-linecap="round" stroke-linejoin="round"/>
  <circle cx="358" cy="321" r="7" fill="#f2c9a8"/>

  <!-- cat: American shorthair, silver classic tabby -->
  <g>
    <path class="tail" d="M140 322 Q172 322 168 296 Q166 282 156 286" stroke="#b9b6c6" stroke-width="9" fill="none" stroke-linecap="round"/>
    <ellipse cx="118" cy="300" rx="27" ry="30" fill="#b9b6c6"/>
    <path d="M94 292 Q102 300 98 312 M140 290 Q132 300 138 312 M101 318 Q118 330 135 318" stroke="#4a4658" stroke-width="4" fill="none" stroke-linecap="round"/>
    <path d="M106 286 Q118 292 130 286" stroke="#4a4658" stroke-width="3" fill="none" stroke-linecap="round"/>
    <ellipse cx="118" cy="304" rx="10" ry="14" fill="#d6d3e0"/>
    <path d="M99 252 L100 230 L114 244Z" fill="#b9b6c6"/>
    <path d="M137 252 L136 230 L122 244Z" fill="#b9b6c6"/>
    <path d="M102 246 L102 236 L110 244Z" fill="#e7b3c2"/>
    <path d="M134 246 L134 236 L126 244Z" fill="#e7b3c2"/>
    <circle cx="118" cy="262" r="22" fill="#b9b6c6"/>
    <path d="M112 244 L112 252 M118 242 L118 252 M124 244 L124 252" stroke="#4a4658" stroke-width="2.6" stroke-linecap="round"/>
    <path d="M97 262 L104 264 M97 269 L104 268 M139 262 L132 264 M139 269 L132 268" stroke="#4a4658" stroke-width="2.2" stroke-linecap="round"/>
    <ellipse cx="118" cy="272" rx="11" ry="8" fill="#d6d3e0"/>
    <ellipse cx="110" cy="261" rx="4" ry="4.5" fill="#c9d36a"/>
    <ellipse cx="126" cy="261" rx="4" ry="4.5" fill="#c9d36a"/>
    <ellipse cx="110" cy="261" rx="1.3" ry="3.5" fill="#1d1830"/>
    <ellipse cx="126" cy="261" rx="1.3" ry="3.5" fill="#1d1830"/>
    <path d="M115.5 268 L120.5 268 L118 271Z" fill="#e7a0b0"/>
    <path d="M118 271 Q115 275 112 273 M118 271 Q121 275 124 273" stroke="#4a4658" stroke-width="1.3" fill="none"/>
    <ellipse cx="106" cy="328" rx="8" ry="4" fill="#d6d3e0"/>
    <ellipse cx="130" cy="328" rx="8" ry="4" fill="#d6d3e0"/>
  </g>
</svg>
